# xmcd
#
# Track frame offsets:
#  150
#  13688
#  34180
#  55523
#  69706
#  87001
#  108311
#  132603
#  157285
#  174115
#  201788
#  222744
#  245409
#  273077
#  290616
#
# Disc length: 4130 seconds
#
# Revision: 0
# Processed by: cddbd v1.5.1PL0 Copyright (c) Steve Scherf et al.
# Submitted via: Collectorz.com Music Collector 6.9
#
DISCID=dc10200f
DTITLE=steve earle - Mccabe's Guitar Shop - 18th Dec 1987- Disc 1
DYEAR=1987
DGENRE=
TTITLE0=Baby Let Me Follow You Down
TTITLE1=Angry Young Man
TTITLE2=Hometown Blues
TTITLE3=My Old Friend The Blues
TTITLE4=Someday
TTITLE5=Johnny Come Lately
TTITLE6=Nothing But A Child
TTITLE7=Tom Ame's Prayer
TTITLE8=Mercenary Song
TTITLE9=So Different Blues
TTITLE10=Lungs
TTITLE11=Copperhead Road
TTITLE12=Even When I'm Blue
TTITLE13=I Ain't Ever Satisfied
TTITLE14=Data track
EXTD=
EXTT0=
EXTT1=
EXTT2=
EXTT3=
EXTT4=
EXTT5=
EXTT6=
EXTT7=
EXTT8=
EXTT9=
EXTT10=
EXTT11=
EXTT12=
EXTT13=
EXTT14=
PLAYORDER=
